<svg id="visual" viewBox="0 0 960 540" width="960" height="540" xmlns="http://www.w3.org/2000/svg" xmlns:xlink="http://www.w3.org/1999/xlink" version="1.1"><rect x="0" y="0" width="960" height="540" fill="#001220"></rect><defs><linearGradient id="grad1_0" x1="43.8%" y1="0%" x2="100%" y2="100%"><stop offset="14.444444444444446%" stop-color="#0066ff" stop-opacity="1"></stop><stop offset="85.55555555555554%" stop-color="#0066ff" stop-opacity="1"></stop></linearGradient></defs><defs><linearGradient id="grad1_1" x1="43.8%" y1="0%" x2="100%" y2="100%"><stop offset="14.444444444444446%" stop-color="#0066ff" stop-opacity="1"></stop><stop offset="85.55555555555554%" stop-color="#0059d1" stop-opacity="1"></stop></linearGradient></defs><defs><linearGradient id="grad1_2" x1="43.8%" y1="0%" x2="100%" y2="100%"><stop offset="14.444444444444446%" stop-color="#0049a3" stop-opacity="1"></stop><stop offset="85.55555555555554%" stop-color="#0059d1" stop-opacity="1"></stop></linearGradient></defs><defs><linearGradient id="grad1_3" x1="43.8%" y1="0%" x2="100%" y2="100%"><stop offset="14.444444444444446%" stop-color="#0049a3" stop-opacity="1"></stop><stop offset="85.55555555555554%" stop-color="#003775" stop-opacity="1"></stop></linearGradient></defs><defs><linearGradient id="grad1_4" x1="43.8%" y1="0%" x2="100%" y2="100%"><stop offset="14.444444444444446%" stop-color="#002548" stop-opacity="1"></stop><stop offset="85.55555555555554%" stop-color="#003775" stop-opacity="1"></stop></linearGradient></defs><defs><linearGradient id="grad1_5" x1="43.8%" y1="0%" x2="100%" y2="100%"><stop offset="14.444444444444446%" stop-color="#002548" stop-opacity="1"></stop><stop offset="85.55555555555554%" stop-color="#001220" stop-opacity="1"></stop></linearGradient></defs><defs><linearGradient id="grad2_0" x1="0%" y1="0%" x2="56.3%" y2="100%"><stop offset="14.444444444444446%" stop-color="#0066ff" stop-opacity="1"></stop><stop offset="85.55555555555554%" stop-color="#0066ff" stop-opacity="1"></stop></linearGradient></defs><defs><linearGradient id="grad2_1" x1="0%" y1="0%" x2="56.3%" y2="100%"><stop offset="14.444444444444446%" stop-color="#0059d1" stop-opacity="1"></stop><stop offset="85.55555555555554%" stop-color="#0066ff" stop-opacity="1"></stop></linearGradient></defs><defs><linearGradient id="grad2_2" x1="0%" y1="0%" x2="56.3%" y2="100%"><stop offset="14.444444444444446%" stop-color="#0059d1" stop-opacity="1"></stop><stop offset="85.55555555555554%" stop-color="#0049a3" stop-opacity="1"></stop></linearGradient></defs><defs><linearGradient id="grad2_3" x1="0%" y1="0%" x2="56.3%" y2="100%"><stop offset="14.444444444444446%" stop-color="#003775" stop-opacity="1"></stop><stop offset="85.55555555555554%" stop-color="#0049a3" stop-opacity="1"></stop></linearGradient></defs><defs><linearGradient id="grad2_4" x1="0%" y1="0%" x2="56.3%" y2="100%"><stop offset="14.444444444444446%" stop-color="#003775" stop-opacity="1"></stop><stop offset="85.55555555555554%" stop-color="#002548" stop-opacity="1"></stop></linearGradient></defs><defs><linearGradient id="grad2_5" x1="0%" y1="0%" x2="56.3%" y2="100%"><stop offset="14.444444444444446%" stop-color="#001220" stop-opacity="1"></stop><stop offset="85.55555555555554%" stop-color="#002548" stop-opacity="1"></stop></linearGradient></defs><g transform="translate(960, 0)"><path d="M0 378C-18.8 373 -37.5 368 -58 366.4C-78.5 364.8 -100.8 366.6 -114.3 351.9C-127.9 337.2 -132.7 306 -153.4 301.2C-174.2 296.3 -210.9 317.9 -222.2 305.8C-233.4 293.7 -219.2 247.9 -230.5 230.5C-241.8 213.1 -278.6 224 -300.1 218.1C-321.7 212.1 -328 189.3 -327.9 167.1C-327.8 144.8 -321.3 123.2 -322.4 104.8C-323.5 86.3 -332.2 71.2 -342.7 54.3C-353.3 37.4 -365.6 18.7 -378 0L0 0Z" fill="#001c33"></path><path d="M0 315C-15.6 310.8 -31.3 306.7 -48.4 305.4C-65.5 304 -84 305.5 -95.3 293.2C-106.6 281 -110.6 255 -127.9 251C-145.2 247 -175.8 264.9 -185.2 254.8C-194.5 244.8 -182.7 206.6 -192.1 192.1C-201.5 177.6 -232.2 186.7 -250.1 181.7C-268.1 176.8 -273.3 157.8 -273.2 139.2C-273.2 120.7 -267.8 102.6 -268.7 87.3C-269.6 72 -276.8 59.3 -285.6 45.2C-294.4 31.1 -304.7 15.6 -315 0L0 0Z" fill="#002e5e"></path><path d="M0 252C-12.5 248.7 -25 245.4 -38.7 244.3C-52.4 243.2 -67.2 244.4 -76.2 234.6C-85.2 224.8 -88.5 204 -102.3 200.8C-116.1 197.6 -140.6 211.9 -148.1 203.9C-155.6 195.8 -146.2 165.3 -153.7 153.7C-161.2 142.1 -185.7 149.3 -200.1 145.4C-214.5 141.4 -218.7 126.2 -218.6 111.4C-218.5 96.6 -214.2 82.1 -214.9 69.8C-215.7 57.6 -221.5 47.5 -228.5 36.2C-235.5 24.9 -243.8 12.5 -252 0L0 0Z" fill="#00408b"></path><path d="M0 189C-9.4 186.5 -18.8 184 -29 183.2C-39.3 182.4 -50.4 183.3 -57.2 175.9C-63.9 168.6 -66.3 153 -76.7 150.6C-87.1 148.2 -105.5 159 -111.1 152.9C-116.7 146.9 -109.6 124 -115.3 115.3C-120.9 106.5 -139.3 112 -150.1 109C-160.8 106.1 -164 94.7 -163.9 83.5C-163.9 72.4 -160.7 61.6 -161.2 52.4C-161.8 43.2 -166.1 35.6 -171.4 27.1C-176.6 18.7 -182.8 9.3 -189 0L0 0Z" fill="#0051ba"></path><path d="M0 126C-6.3 124.3 -12.5 122.7 -19.3 122.1C-26.2 121.6 -33.6 122.2 -38.1 117.3C-42.6 112.4 -44.2 102 -51.1 100.4C-58.1 98.8 -70.3 106 -74.1 101.9C-77.8 97.9 -73.1 82.6 -76.8 76.8C-80.6 71 -92.9 74.7 -100 72.7C-107.2 70.7 -109.3 63.1 -109.3 55.7C-109.3 48.3 -107.1 41.1 -107.5 34.9C-107.8 28.8 -110.7 23.7 -114.2 18.1C-117.8 12.5 -121.9 6.2 -126 0L0 0Z" fill="#0060e8"></path><path d="M0 63C-3.1 62.2 -6.3 61.3 -9.7 61.1C-13.1 60.8 -16.8 61.1 -19.1 58.6C-21.3 56.2 -22.1 51 -25.6 50.2C-29 49.4 -35.2 53 -37 51C-38.9 49 -36.5 41.3 -38.4 38.4C-40.3 35.5 -46.4 37.3 -50 36.3C-53.6 35.4 -54.7 31.6 -54.6 27.8C-54.6 24.1 -53.6 20.5 -53.7 17.5C-53.9 14.4 -55.4 11.9 -57.1 9C-58.9 6.2 -60.9 3.1 -63 0L0 0Z" fill="#0066ff"></path></g><g transform="translate(0, 540)"><path d="M0 -378C15.6 -350.1 31.3 -322.3 50.8 -321C70.4 -319.7 93.9 -345.1 113.7 -350C133.6 -354.9 149.8 -339.2 168 -329.7C186.1 -320.1 206.1 -316.6 222.2 -305.8C238.2 -295 250.3 -276.8 256 -256C261.7 -235.1 261 -211.5 268.6 -195.1C276.2 -178.8 291.9 -169.7 310.1 -158C328.2 -146.3 348.7 -132 349 -113.4C349.3 -94.8 329.4 -72 330.9 -52.4C332.3 -32.8 355.2 -16.4 378 0L0 0Z" fill="#001c33"></path><path d="M0 -315C13 -291.8 26.1 -268.5 42.4 -267.5C58.7 -266.5 78.2 -287.6 94.8 -291.7C111.3 -295.7 124.9 -282.7 140 -274.7C155.1 -266.8 171.8 -263.9 185.2 -254.8C198.5 -245.8 208.6 -230.7 213.3 -213.3C218.1 -195.9 217.5 -176.2 223.8 -162.6C230.1 -149 243.3 -141.4 258.4 -131.7C273.5 -121.9 290.6 -110 290.9 -94.5C291.1 -79 274.5 -60 275.7 -43.7C276.9 -27.3 296 -13.7 315 0L0 0Z" fill="#002e5e"></path><path d="M0 -252C10.4 -233.4 20.9 -214.8 33.9 -214C46.9 -213.2 62.6 -230.1 75.8 -233.3C89.1 -236.6 99.9 -226.2 112 -219.8C124.1 -213.4 137.4 -211.1 148.1 -203.9C158.8 -196.7 166.8 -184.6 170.6 -170.6C174.5 -156.7 174 -141 179.1 -130.1C184.1 -119.2 194.6 -113.1 206.7 -105.3C218.8 -97.5 232.5 -88 232.7 -75.6C232.9 -63.2 219.6 -48 220.6 -34.9C221.6 -21.9 236.8 -10.9 252 0L0 0Z" fill="#00408b"></path><path d="M0 -189C7.8 -175.1 15.6 -161.1 25.4 -160.5C35.2 -159.9 46.9 -172.6 56.9 -175C66.8 -177.4 74.9 -169.6 84 -164.8C93.1 -160.1 103.1 -158.3 111.1 -152.9C119.1 -147.5 125.1 -138.4 128 -128C130.8 -117.5 130.5 -105.7 134.3 -97.6C138.1 -89.4 146 -84.8 155 -79C164.1 -73.1 174.4 -66 174.5 -56.7C174.7 -47.4 164.7 -36 165.4 -26.2C166.2 -16.4 177.6 -8.2 189 0L0 0Z" fill="#0051ba"></path><path d="M0 -126C5.2 -116.7 10.4 -107.4 16.9 -107C23.5 -106.6 31.3 -115 37.9 -116.7C44.5 -118.3 49.9 -113.1 56 -109.9C62 -106.7 68.7 -105.5 74.1 -101.9C79.4 -98.3 83.4 -92.3 85.3 -85.3C87.2 -78.4 87 -70.5 89.5 -65C92.1 -59.6 97.3 -56.6 103.4 -52.7C109.4 -48.8 116.2 -44 116.3 -37.8C116.4 -31.6 109.8 -24 110.3 -17.5C110.8 -10.9 118.4 -5.5 126 0L0 0Z" fill="#0060e8"></path><path d="M0 -63C2.6 -58.4 5.2 -53.7 8.5 -53.5C11.7 -53.3 15.6 -57.5 19 -58.3C22.3 -59.1 25 -56.5 28 -54.9C31 -53.4 34.4 -52.8 37 -51C39.7 -49.2 41.7 -46.1 42.7 -42.7C43.6 -39.2 43.5 -35.2 44.8 -32.5C46 -29.8 48.7 -28.3 51.7 -26.3C54.7 -24.4 58.1 -22 58.2 -18.9C58.2 -15.8 54.9 -12 55.1 -8.7C55.4 -5.5 59.2 -2.7 63 0L0 0Z" fill="#0066ff"></path></g></svg>