<svg id="visual" viewBox="0 0 900 600" width="900" height="600" xmlns="http://www.w3.org/2000/svg" xmlns:xlink="http://www.w3.org/1999/xlink" version="1.1"><rect x="0" y="0" width="900" height="600" fill="#3292dc"></rect><defs><linearGradient id="grad1_0" x1="33.3%" y1="0%" x2="100%" y2="100%"><stop offset="20%" stop-color="#080ecb" stop-opacity="1"></stop><stop offset="80%" stop-color="#080ecb" stop-opacity="1"></stop></linearGradient></defs><defs><linearGradient id="grad1_1" x1="33.3%" y1="0%" x2="100%" y2="100%"><stop offset="20%" stop-color="#080ecb" stop-opacity="1"></stop><stop offset="80%" stop-color="#0060e0" stop-opacity="1"></stop></linearGradient></defs><defs><linearGradient id="grad1_2" x1="33.3%" y1="0%" x2="100%" y2="100%"><stop offset="20%" stop-color="#3292dc" stop-opacity="1"></stop><stop offset="80%" stop-color="#0060e0" stop-opacity="1"></stop></linearGradient></defs><defs><linearGradient id="grad2_0" x1="0%" y1="0%" x2="66.7%" y2="100%"><stop offset="20%" stop-color="#080ecb" stop-opacity="1"></stop><stop offset="80%" stop-color="#080ecb" stop-opacity="1"></stop></linearGradient></defs><defs><linearGradient id="grad2_1" x1="0%" y1="0%" x2="66.7%" y2="100%"><stop offset="20%" stop-color="#0060e0" stop-opacity="1"></stop><stop offset="80%" stop-color="#080ecb" stop-opacity="1"></stop></linearGradient></defs><defs><linearGradient id="grad2_2" x1="0%" y1="0%" x2="66.7%" y2="100%"><stop offset="20%" stop-color="#0060e0" stop-opacity="1"></stop><stop offset="80%" stop-color="#3292dc" stop-opacity="1"></stop></linearGradient></defs><g transform="translate(900, 0)"><path d="M0 486.7C-38.5 441.8 -77.1 396.8 -125.5 386.1C-173.9 375.5 -232.1 399.3 -282.7 389.1C-333.3 379 -376.3 335 -393.8 286.1C-411.3 237.2 -403.4 183.2 -414.7 134.7C-425.9 86.2 -456.3 43.1 -486.7 0L0 0Z" fill="#007ae0"></path><path d="M0 324.5C-25.7 294.5 -51.4 264.5 -83.6 257.4C-115.9 250.3 -154.7 266.2 -188.5 259.4C-222.2 252.7 -250.8 223.4 -262.5 190.7C-274.2 158.1 -268.9 122.2 -276.4 89.8C-283.9 57.5 -304.2 28.7 -324.5 0L0 0Z" fill="#0042da"></path><path d="M0 162.2C-12.8 147.3 -25.7 132.3 -41.8 128.7C-58 125.2 -77.4 133.1 -94.2 129.7C-111.1 126.3 -125.4 111.7 -131.3 95.4C-137.1 79.1 -134.5 61.1 -138.2 44.9C-142 28.7 -152.1 14.4 -162.2 0L0 0Z" fill="#080ecb"></path></g><g transform="translate(0, 600)"><path d="M0 -486.7C53 -481.7 105.9 -476.7 147.4 -453.7C188.9 -430.6 218.8 -389.5 263.3 -362.4C307.9 -335.4 367 -322.5 393.8 -286.1C420.6 -249.7 415 -189.7 425.1 -138.1C435.2 -86.5 461 -43.3 486.7 0L0 0Z" fill="#007ae0"></path><path d="M0 -324.5C35.3 -321.2 70.6 -317.8 98.3 -302.4C125.9 -287.1 145.9 -259.6 175.6 -241.6C205.2 -223.6 244.7 -215 262.5 -190.7C280.4 -166.5 276.7 -126.5 283.4 -92.1C290.1 -57.7 307.3 -28.8 324.5 0L0 0Z" fill="#0042da"></path><path d="M0 -162.2C17.7 -160.6 35.3 -158.9 49.1 -151.2C63 -143.5 72.9 -129.8 87.8 -120.8C102.6 -111.8 122.3 -107.5 131.3 -95.4C140.2 -83.2 138.3 -63.2 141.7 -46C145.1 -28.8 153.7 -14.4 162.2 0L0 0Z" fill="#080ecb"></path></g></svg>