<svg id="visual" viewBox="0 0 900 600" width="900" height="600" xmlns="http://www.w3.org/2000/svg" xmlns:xlink="http://www.w3.org/1999/xlink" version="1.1"><rect x="0" y="0" width="900" height="600" fill="#001220"></rect><path d="M0 338L13.7 345.5C27.3 353 54.7 368 82 365.3C109.3 362.7 136.7 342.3 163.8 335.8C191 329.3 218 336.7 245.2 346.3C272.3 356 299.7 368 327 363C354.3 358 381.7 336 409 331.7C436.3 327.3 463.7 340.7 491 355C518.3 369.3 545.7 384.7 573 375.7C600.3 366.7 627.7 333.3 654.8 324C682 314.7 709 329.3 736.2 337.8C763.3 346.3 790.7 348.7 818 344.3C845.3 340 872.7 329 886.3 323.5L900 318L900 601L886.3 601C872.7 601 845.3 601 818 601C790.7 601 763.3 601 736.2 601C709 601 682 601 654.8 601C627.7 601 600.3 601 573 601C545.7 601 518.3 601 491 601C463.7 601 436.3 601 409 601C381.7 601 354.3 601 327 601C299.7 601 272.3 601 245.2 601C218 601 191 601 163.8 601C136.7 601 109.3 601 82 601C54.7 601 27.3 601 13.7 601L0 601Z" fill="#1e12df"></path><path d="M0 377L13.7 378C27.3 379 54.7 381 82 381.3C109.3 381.7 136.7 380.3 163.8 383.3C191 386.3 218 393.7 245.2 403.8C272.3 414 299.7 427 327 431.2C354.3 435.3 381.7 430.7 409 432.8C436.3 435 463.7 444 491 442.2C518.3 440.3 545.7 427.7 573 415.8C600.3 404 627.7 393 654.8 392.8C682 392.7 709 403.3 736.2 414.8C763.3 426.3 790.7 438.7 818 436.7C845.3 434.7 872.7 418.3 886.3 410.2L900 402L900 601L886.3 601C872.7 601 845.3 601 818 601C790.7 601 763.3 601 736.2 601C709 601 682 601 654.8 601C627.7 601 600.3 601 573 601C545.7 601 518.3 601 491 601C463.7 601 436.3 601 409 601C381.7 601 354.3 601 327 601C299.7 601 272.3 601 245.2 601C218 601 191 601 163.8 601C136.7 601 109.3 601 82 601C54.7 601 27.3 601 13.7 601L0 601Z" fill="#00bbff"></path><path d="M0 472L13.7 461C27.3 450 54.7 428 82 422.7C109.3 417.3 136.7 428.7 163.8 434C191 439.3 218 438.7 245.2 436.2C272.3 433.7 299.7 429.3 327 436.7C354.3 444 381.7 463 409 461.8C436.3 460.7 463.7 439.3 491 438.5C518.3 437.7 545.7 457.3 573 464.7C600.3 472 627.7 467 654.8 455.3C682 443.7 709 425.3 736.2 423.7C763.3 422 790.7 437 818 437.3C845.3 437.7 872.7 423.3 886.3 416.2L900 409L900 601L886.3 601C872.7 601 845.3 601 818 601C790.7 601 763.3 601 736.2 601C709 601 682 601 654.8 601C627.7 601 600.3 601 573 601C545.7 601 518.3 601 491 601C463.7 601 436.3 601 409 601C381.7 601 354.3 601 327 601C299.7 601 272.3 601 245.2 601C218 601 191 601 163.8 601C136.7 601 109.3 601 82 601C54.7 601 27.3 601 13.7 601L0 601Z" fill="#13efc7"></path><path d="M0 504L13.7 508C27.3 512 54.7 520 82 524.2C109.3 528.3 136.7 528.7 163.8 525.8C191 523 218 517 245.2 511C272.3 505 299.7 499 327 498.7C354.3 498.3 381.7 503.7 409 498.2C436.3 492.7 463.7 476.3 491 471C518.3 465.7 545.7 471.3 573 481.5C600.3 491.7 627.7 506.3 654.8 510.5C682 514.7 709 508.3 736.2 498.2C763.3 488 790.7 474 818 478.2C845.3 482.3 872.7 504.7 886.3 515.8L900 527L900 601L886.3 601C872.7 601 845.3 601 818 601C790.7 601 763.3 601 736.2 601C709 601 682 601 654.8 601C627.7 601 600.3 601 573 601C545.7 601 518.3 601 491 601C463.7 601 436.3 601 409 601C381.7 601 354.3 601 327 601C299.7 601 272.3 601 245.2 601C218 601 191 601 163.8 601C136.7 601 109.3 601 82 601C54.7 601 27.3 601 13.7 601L0 601Z" fill="#00bbff"></path><path d="M0 529L13.7 532.5C27.3 536 54.7 543 82 548.5C109.3 554 136.7 558 163.8 559.2C191 560.3 218 558.7 245.2 554.2C272.3 549.7 299.7 542.3 327 541.5C354.3 540.7 381.7 546.3 409 549.5C436.3 552.7 463.7 553.3 491 549.2C518.3 545 545.7 536 573 532.5C600.3 529 627.7 531 654.8 534.2C682 537.3 709 541.7 736.2 539.2C763.3 536.7 790.7 527.3 818 530.7C845.3 534 872.7 550 886.3 558L900 566L900 601L886.3 601C872.7 601 845.3 601 818 601C790.7 601 763.3 601 736.2 601C709 601 682 601 654.8 601C627.7 601 600.3 601 573 601C545.7 601 518.3 601 491 601C463.7 601 436.3 601 409 601C381.7 601 354.3 601 327 601C299.7 601 272.3 601 245.2 601C218 601 191 601 163.8 601C136.7 601 109.3 601 82 601C54.7 601 27.3 601 13.7 601L0 601Z" fill="#1e12df"></path></svg>