<svg id="visual" viewBox="0 0 900 600" width="900" height="600" xmlns="http://www.w3.org/2000/svg" xmlns:xlink="http://www.w3.org/1999/xlink" version="1.1"><path d="M0 169L21.5 177C43 185 86 201 128.8 196C171.7 191 214.3 165 257.2 167C300 169 343 199 385.8 205C428.7 211 471.3 193 514.2 174C557 155 600 135 642.8 132C685.7 129 728.3 143 771.2 147C814 151 857 145 878.5 142L900 139L900 0L878.5 0C857 0 814 0 771.2 0C728.3 0 685.7 0 642.8 0C600 0 557 0 514.2 0C471.3 0 428.7 0 385.8 0C343 0 300 0 257.2 0C214.3 0 171.7 0 128.8 0C86 0 43 0 21.5 0L0 0Z" fill="#002cb6"></path><path d="M0 361L21.5 358C43 355 86 349 128.8 341C171.7 333 214.3 323 257.2 326C300 329 343 345 385.8 355C428.7 365 471.3 369 514.2 361C557 353 600 333 642.8 322C685.7 311 728.3 309 771.2 311C814 313 857 319 878.5 322L900 325L900 137L878.5 140C857 143 814 149 771.2 145C728.3 141 685.7 127 642.8 130C600 133 557 153 514.2 172C471.3 191 428.7 209 385.8 203C343 197 300 167 257.2 165C214.3 163 171.7 189 128.8 194C86 199 43 183 21.5 175L0 167Z" fill="#0433d6"></path><path d="M0 433L21.5 430C43 427 86 421 128.8 413C171.7 405 214.3 395 257.2 399C300 403 343 421 385.8 431C428.7 441 471.3 443 514.2 433C557 423 600 401 642.8 390C685.7 379 728.3 379 771.2 380C814 381 857 383 878.5 384L900 385L900 323L878.5 320C857 317 814 311 771.2 309C728.3 307 685.7 309 642.8 320C600 331 557 351 514.2 359C471.3 367 428.7 363 385.8 353C343 343 300 327 257.2 324C214.3 321 171.7 331 128.8 339C86 347 43 353 21.5 356L0 359Z" fill="#103af7"></path><path d="M0 493L21.5 490C43 487 86 481 128.8 477C171.7 473 214.3 471 257.2 478C300 485 343 501 385.8 507C428.7 513 471.3 509 514.2 501C557 493 600 481 642.8 478C685.7 475 728.3 481 771.2 483C814 485 857 483 878.5 482L900 481L900 383L878.5 382C857 381 814 379 771.2 378C728.3 377 685.7 377 642.8 388C600 399 557 421 514.2 431C471.3 441 428.7 439 385.8 429C343 419 300 401 257.2 397C214.3 393 171.7 403 128.8 411C86 419 43 425 21.5 428L0 431Z" fill="#485bfc"></path><path d="M0 601L21.5 601C43 601 86 601 128.8 601C171.7 601 214.3 601 257.2 601C300 601 343 601 385.8 601C428.7 601 471.3 601 514.2 601C557 601 600 601 642.8 601C685.7 601 728.3 601 771.2 601C814 601 857 601 878.5 601L900 601L900 479L878.5 480C857 481 814 483 771.2 481C728.3 479 685.7 473 642.8 476C600 479 557 491 514.2 499C471.3 507 428.7 511 385.8 505C343 499 300 483 257.2 476C214.3 469 171.7 471 128.8 475C86 479 43 485 21.5 488L0 491Z" fill="#6b7aff"></path></svg>