<svg id="visual" viewBox="0 0 900 600" width="900" height="600" xmlns="http://www.w3.org/2000/svg" xmlns:xlink="http://www.w3.org/1999/xlink" version="1.1"><g stroke-width="1" stroke-linejoin="bevel"><path d="M430 307.9L472 281.1L419 174.4Z" fill="#004ac7" stroke="#004ac7"></path><path d="M419 174.4L346 274.1L430 307.9Z" fill="#169fde" stroke="#169fde"></path><path d="M301 194.4L295 230.1L346 274.1Z" fill="#0069d5" stroke="#0069d5"></path><path d="M472 281.1L515 183.4L419 174.4Z" fill="#007ddc" stroke="#007ddc"></path><path d="M419 174.4L426 115.7L393 135.4Z" fill="#0073d9" stroke="#0073d9"></path><path d="M301 194.4L346 274.1L419 174.4Z" fill="#169fde" stroke="#169fde"></path><path d="M295 230.1L329 330.9L346 274.1Z" fill="#0097de" stroke="#0097de"></path><path d="M346 274.1L329 330.9L430 307.9Z" fill="#007ddc" stroke="#007ddc"></path><path d="M393 135.4L301 194.4L419 174.4Z" fill="#0097de" stroke="#0097de"></path><path d="M515 183.4L426 115.7L419 174.4Z" fill="#0055cd" stroke="#0055cd"></path><path d="M552 374.9L557 245.1L472 281.1Z" fill="#0073d9" stroke="#0073d9"></path><path d="M472 281.1L557 245.1L515 183.4Z" fill="#0097de" stroke="#0097de"></path><path d="M426 115.7L359 100.7L393 135.4Z" fill="#007ddc" stroke="#007ddc"></path><path d="M393 135.4L359 100.7L301 194.4Z" fill="#0073d9" stroke="#0073d9"></path><path d="M526 429.6L552 374.9L430 307.9Z" fill="#0e3ec1" stroke="#0e3ec1"></path><path d="M430 307.9L552 374.9L472 281.1Z" fill="#0e3ec1" stroke="#0e3ec1"></path><path d="M359 100.7L261 109.7L301 194.4Z" fill="#0097de" stroke="#0097de"></path><path d="M183 174.4L179 256.1L295 230.1Z" fill="#005fd1" stroke="#005fd1"></path><path d="M179 256.1L241 346.9L295 230.1Z" fill="#008ede" stroke="#008ede"></path><path d="M295 230.1L241 346.9L329 330.9Z" fill="#0e3ec1" stroke="#0e3ec1"></path><path d="M350 452.6L451 454.6L430 307.9Z" fill="#008ede" stroke="#008ede"></path><path d="M631 187.4L531 62.7L515 183.4Z" fill="#0e3ec1" stroke="#0e3ec1"></path><path d="M515 183.4L531 62.7L426 115.7Z" fill="#0073d9" stroke="#0073d9"></path><path d="M426 115.7L430 0L359 100.7Z" fill="#0073d9" stroke="#0073d9"></path><path d="M359 100.7L275 0L261 109.7Z" fill="#005fd1" stroke="#005fd1"></path><path d="M350 452.6L430 307.9L329 330.9Z" fill="#0086dd" stroke="#0086dd"></path><path d="M451 454.6L526 429.6L430 307.9Z" fill="#0e3ec1" stroke="#0e3ec1"></path><path d="M552 374.9L611 344.9L557 245.1Z" fill="#005fd1" stroke="#005fd1"></path><path d="M557 245.1L631 187.4L515 183.4Z" fill="#0e3ec1" stroke="#0e3ec1"></path><path d="M656 413.6L611 344.9L552 374.9Z" fill="#0069d5" stroke="#0069d5"></path><path d="M644 279.1L631 187.4L557 245.1Z" fill="#0069d5" stroke="#0069d5"></path><path d="M286 449.6L350 452.6L329 330.9Z" fill="#008ede" stroke="#008ede"></path><path d="M611 344.9L644 279.1L557 245.1Z" fill="#0097de" stroke="#0097de"></path><path d="M183 174.4L295 230.1L301 194.4Z" fill="#0086dd" stroke="#0086dd"></path><path d="M531 62.7L430 0L426 115.7Z" fill="#008ede" stroke="#008ede"></path><path d="M261 109.7L183 174.4L301 194.4Z" fill="#007ddc" stroke="#007ddc"></path><path d="M241 346.9L286 449.6L329 330.9Z" fill="#0097de" stroke="#0097de"></path><path d="M147 442.6L286 449.6L241 346.9Z" fill="#0055cd" stroke="#0055cd"></path><path d="M430 0L346 0L359 100.7Z" fill="#0097de" stroke="#0097de"></path><path d="M261 109.7L188 113.7L183 174.4Z" fill="#0073d9" stroke="#0073d9"></path><path d="M350 452.6L391 495.3L451 454.6Z" fill="#004ac7" stroke="#004ac7"></path><path d="M451 454.6L548 538.3L526 429.6Z" fill="#0086dd" stroke="#0086dd"></path><path d="M272 522.3L391 495.3L350 452.6Z" fill="#0073d9" stroke="#0073d9"></path><path d="M198 0L188 113.7L261 109.7Z" fill="#004ac7" stroke="#004ac7"></path><path d="M639 0L523 0L531 62.7Z" fill="#169fde" stroke="#169fde"></path><path d="M531 62.7L523 0L430 0Z" fill="#0086dd" stroke="#0086dd"></path><path d="M728 360.9L644 279.1L611 344.9Z" fill="#0069d5" stroke="#0069d5"></path><path d="M728 360.9L690 267.1L644 279.1Z" fill="#007ddc" stroke="#007ddc"></path><path d="M644 279.1L690 267.1L631 187.4Z" fill="#008ede" stroke="#008ede"></path><path d="M631 187.4L633 69.7L531 62.7Z" fill="#169fde" stroke="#169fde"></path><path d="M694 53.7L633 69.7L631 187.4Z" fill="#0069d5" stroke="#0069d5"></path><path d="M346 0L275 0L359 100.7Z" fill="#0097de" stroke="#0097de"></path><path d="M92 292.1L144 321.9L179 256.1Z" fill="#0073d9" stroke="#0073d9"></path><path d="M179 256.1L144 321.9L241 346.9Z" fill="#169fde" stroke="#169fde"></path><path d="M92 292.1L179 256.1L70 147.4Z" fill="#169fde" stroke="#169fde"></path><path d="M330 600L423 527.3L391 495.3Z" fill="#004ac7" stroke="#004ac7"></path><path d="M391 495.3L423 527.3L451 454.6Z" fill="#0e3ec1" stroke="#0e3ec1"></path><path d="M649 498.3L656 413.6L526 429.6Z" fill="#0073d9" stroke="#0073d9"></path><path d="M526 429.6L656 413.6L552 374.9Z" fill="#007ddc" stroke="#007ddc"></path><path d="M186 531.3L272 522.3L286 449.6Z" fill="#0097de" stroke="#0097de"></path><path d="M286 449.6L272 522.3L350 452.6Z" fill="#0069d5" stroke="#0069d5"></path><path d="M423 527.3L548 538.3L451 454.6Z" fill="#169fde" stroke="#169fde"></path><path d="M440 600L548 538.3L423 527.3Z" fill="#169fde" stroke="#169fde"></path><path d="M275 0L198 0L261 109.7Z" fill="#0069d5" stroke="#0069d5"></path><path d="M70 147.4L179 256.1L183 174.4Z" fill="#005fd1" stroke="#005fd1"></path><path d="M694 53.7L639 0L633 69.7Z" fill="#0069d5" stroke="#0069d5"></path><path d="M633 69.7L639 0L531 62.7Z" fill="#004ac7" stroke="#004ac7"></path><path d="M104 100.7L183 174.4L188 113.7Z" fill="#169fde" stroke="#169fde"></path><path d="M144 321.9L147 442.6L241 346.9Z" fill="#005fd1" stroke="#005fd1"></path><path d="M656 413.6L728 360.9L611 344.9Z" fill="#169fde" stroke="#169fde"></path><path d="M755 152.4L694 53.7L631 187.4Z" fill="#007ddc" stroke="#007ddc"></path><path d="M751 411.6L728 360.9L656 413.6Z" fill="#0086dd" stroke="#0086dd"></path><path d="M755 152.4L631 187.4L690 267.1Z" fill="#0073d9" stroke="#0073d9"></path><path d="M89 316.9L147 442.6L144 321.9Z" fill="#004ac7" stroke="#004ac7"></path><path d="M92 292.1L89 316.9L144 321.9Z" fill="#0e3ec1" stroke="#0e3ec1"></path><path d="M117 0L104 100.7L188 113.7Z" fill="#0055cd" stroke="#0055cd"></path><path d="M92 292.1L0 340.9L89 316.9Z" fill="#0055cd" stroke="#0055cd"></path><path d="M548 538.3L649 498.3L526 429.6Z" fill="#0086dd" stroke="#0086dd"></path><path d="M799 161.4L755 152.4L690 267.1Z" fill="#0073d9" stroke="#0073d9"></path><path d="M330 600L440 600L423 527.3Z" fill="#005fd1" stroke="#005fd1"></path><path d="M548 538.3L655 600L649 498.3Z" fill="#004ac7" stroke="#004ac7"></path><path d="M104 100.7L70 147.4L183 174.4Z" fill="#0073d9" stroke="#0073d9"></path><path d="M272 522.3L330 600L391 495.3Z" fill="#005fd1" stroke="#005fd1"></path><path d="M277 600L330 600L272 522.3Z" fill="#0e3ec1" stroke="#0e3ec1"></path><path d="M95 480.3L186 531.3L147 442.6Z" fill="#008ede" stroke="#008ede"></path><path d="M147 442.6L186 531.3L286 449.6Z" fill="#0055cd" stroke="#0055cd"></path><path d="M750 498.3L751 411.6L656 413.6Z" fill="#0e3ec1" stroke="#0e3ec1"></path><path d="M841 266.1L799 161.4L690 267.1Z" fill="#008ede" stroke="#008ede"></path><path d="M186 531.3L277 600L272 522.3Z" fill="#0069d5" stroke="#0069d5"></path><path d="M440 600L558 600L548 538.3Z" fill="#0086dd" stroke="#0086dd"></path><path d="M649 498.3L750 498.3L656 413.6Z" fill="#0055cd" stroke="#0055cd"></path><path d="M198 0L117 0L188 113.7Z" fill="#169fde" stroke="#169fde"></path><path d="M0 114.7L0 142.4L70 147.4Z" fill="#0e3ec1" stroke="#0e3ec1"></path><path d="M799 161.4L784 114.7L755 152.4Z" fill="#0069d5" stroke="#0069d5"></path><path d="M755 152.4L784 114.7L694 53.7Z" fill="#169fde" stroke="#169fde"></path><path d="M694 53.7L742 0L639 0Z" fill="#0069d5" stroke="#0069d5"></path><path d="M806 328.9L690 267.1L728 360.9Z" fill="#0097de" stroke="#0097de"></path><path d="M751 411.6L806 328.9L728 360.9Z" fill="#007ddc" stroke="#007ddc"></path><path d="M89 316.9L86 463.6L147 442.6Z" fill="#004ac7" stroke="#004ac7"></path><path d="M186 531.3L181 600L277 600Z" fill="#0055cd" stroke="#0055cd"></path><path d="M0 405.6L86 463.6L89 316.9Z" fill="#004ac7" stroke="#004ac7"></path><path d="M86 463.6L95 480.3L147 442.6Z" fill="#0e3ec1" stroke="#0e3ec1"></path><path d="M784 114.7L742 0L694 53.7Z" fill="#0097de" stroke="#0097de"></path><path d="M0 142.4L0 245.1L70 147.4Z" fill="#008ede" stroke="#008ede"></path><path d="M70 147.4L0 245.1L92 292.1Z" fill="#0073d9" stroke="#0073d9"></path><path d="M726 600L750 498.3L649 498.3Z" fill="#0e3ec1" stroke="#0e3ec1"></path><path d="M751 411.6L835 397.6L806 328.9Z" fill="#0097de" stroke="#0097de"></path><path d="M900 271.1L841 266.1L900 319.9Z" fill="#0097de" stroke="#0097de"></path><path d="M806 328.9L841 266.1L690 267.1Z" fill="#005fd1" stroke="#005fd1"></path><path d="M900 87.7L801 0L784 114.7Z" fill="#169fde" stroke="#169fde"></path><path d="M784 114.7L801 0L742 0Z" fill="#008ede" stroke="#008ede"></path><path d="M0 245.1L0 340.9L92 292.1Z" fill="#005fd1" stroke="#005fd1"></path><path d="M86 463.6L0 516.3L95 480.3Z" fill="#008ede" stroke="#008ede"></path><path d="M0 114.7L70 147.4L104 100.7Z" fill="#0055cd" stroke="#0055cd"></path><path d="M62 600L181 600L186 531.3Z" fill="#0055cd" stroke="#0055cd"></path><path d="M558 600L655 600L548 538.3Z" fill="#0073d9" stroke="#0073d9"></path><path d="M0 0L0 114.7L104 100.7Z" fill="#0069d5" stroke="#0069d5"></path><path d="M750 498.3L835 397.6L751 411.6Z" fill="#0069d5" stroke="#0069d5"></path><path d="M0 340.9L0 405.6L89 316.9Z" fill="#0069d5" stroke="#0069d5"></path><path d="M95 480.3L62 600L186 531.3Z" fill="#005fd1" stroke="#005fd1"></path><path d="M900 87.7L784 114.7L799 161.4Z" fill="#005fd1" stroke="#005fd1"></path><path d="M655 600L726 600L649 498.3Z" fill="#169fde" stroke="#169fde"></path><path d="M750 498.3L832 520.3L835 397.6Z" fill="#0069d5" stroke="#0069d5"></path><path d="M117 0L0 0L104 100.7Z" fill="#0069d5" stroke="#0069d5"></path><path d="M900 319.9L841 266.1L806 328.9Z" fill="#0097de" stroke="#0097de"></path><path d="M841 266.1L900 181.4L799 161.4Z" fill="#0097de" stroke="#0097de"></path><path d="M900 271.1L900 181.4L841 266.1Z" fill="#0073d9" stroke="#0073d9"></path><path d="M835 397.6L900 319.9L806 328.9Z" fill="#0086dd" stroke="#0086dd"></path><path d="M900 411.6L900 319.9L835 397.6Z" fill="#0097de" stroke="#0097de"></path><path d="M824 600L832 520.3L750 498.3Z" fill="#004ac7" stroke="#004ac7"></path><path d="M0 405.6L0 516.3L86 463.6Z" fill="#0e3ec1" stroke="#0e3ec1"></path><path d="M0 516.3L62 600L95 480.3Z" fill="#0055cd" stroke="#0055cd"></path><path d="M900 181.4L900 87.7L799 161.4Z" fill="#004ac7" stroke="#004ac7"></path><path d="M900 501.3L900 411.6L835 397.6Z" fill="#007ddc" stroke="#007ddc"></path><path d="M900 87.7L900 0L801 0Z" fill="#0073d9" stroke="#0073d9"></path><path d="M726 600L824 600L750 498.3Z" fill="#0069d5" stroke="#0069d5"></path><path d="M832 520.3L900 501.3L835 397.6Z" fill="#0097de" stroke="#0097de"></path><path d="M900 600L900 501.3L832 520.3Z" fill="#008ede" stroke="#008ede"></path><path d="M0 516.3L0 600L62 600Z" fill="#0e3ec1" stroke="#0e3ec1"></path><path d="M824 600L900 600L832 520.3Z" fill="#0086dd" stroke="#0086dd"></path></g></svg>