<svg id="visual" viewBox="0 0 900 600" width="900" height="600" xmlns="http://www.w3.org/2000/svg" xmlns:xlink="http://www.w3.org/1999/xlink" version="1.1"><rect x="0" y="0" width="900" height="600" fill="#26a8e0"></rect><path d="M531 600L619 514L546 429L635 343L529 257L627 171L567 86L598 0L900 0L900 86L900 171L900 257L900 343L900 429L900 514L900 600Z" fill="#0d2bd4"></path><path d="M661 600L612 514L594 429L602 343L593 257L649 171L645 86L614 0L900 0L900 86L900 171L900 257L900 343L900 429L900 514L900 600Z" fill="#0047d9"></path><path d="M728 600L741 514L700 429L682 343L708 257L694 171L709 86L768 0L900 0L900 86L900 171L900 257L900 343L900 429L900 514L900 600Z" fill="#005dda"></path><path d="M801 600L811 514L799 429L745 343L749 257L764 171L763 86L770 0L900 0L900 86L900 171L900 257L900 343L900 429L900 514L900 600Z" fill="#2670d8"></path><path d="M829 600L802 514L830 429L792 343L816 257L824 171L797 86L848 0L900 0L900 86L900 171L900 257L900 343L900 429L900 514L900 600Z" fill="#4682d3"></path></svg>