<svg id="visual" viewBox="0 0 900 600" width="900" height="600" xmlns="http://www.w3.org/2000/svg" xmlns:xlink="http://www.w3.org/1999/xlink" version="1.1"><path d="M0 187L82 127L164 295L245 139L327 97L409 139L491 199L573 223L655 115L736 139L818 229L900 199L900 0L818 0L736 0L655 0L573 0L491 0L409 0L327 0L245 0L164 0L82 0L0 0Z" fill="#0c4de5"></path><path d="M0 265L82 211L164 349L245 259L327 163L409 259L491 319L573 331L655 223L736 199L818 277L900 247L900 197L818 227L736 137L655 113L573 221L491 197L409 137L327 95L245 137L164 293L82 125L0 185Z" fill="#0078dd"></path><path d="M0 343L82 265L164 397L245 331L327 199L409 301L491 355L573 403L655 271L736 277L818 343L900 307L900 245L818 275L736 197L655 221L573 329L491 317L409 257L327 161L245 257L164 347L82 209L0 263Z" fill="#238acc"></path><path d="M0 457L82 541L164 505L245 505L327 493L409 487L491 481L573 553L655 535L736 511L818 469L900 463L900 305L818 341L736 275L655 269L573 401L491 353L409 299L327 197L245 329L164 395L82 263L0 341Z" fill="#0078dd"></path><path d="M0 601L82 601L164 601L245 601L327 601L409 601L491 601L573 601L655 601L736 601L818 601L900 601L900 461L818 467L736 509L655 533L573 551L491 479L409 485L327 491L245 503L164 503L82 539L0 455Z" fill="#0c4de5"></path></svg>